<?xml version="1.0" encoding="iso-8859-1"?>
<!DOCTYPE svg PUBLIC "-//W3C//DTD SVG 20000303 Stylable//EN" "http://www.w3.org/TR/2000/03/WD-SVG-20000303/DTD/svg-20000303-stylable.dtd">
<!-- Creator: CorelDRAW -->
<!-- Unfinished drawing -->
<!-- $Id: a-basefig.svg,v 1.1 2001-09-08 21:00:21 ctl Exp $ -->
<svg xml:space="preserve" x="-2.55184in" y="0.797028in" width="5.10368in" height="1.59406in" style="shape-rendering:geometricPrecision; text-rendering:geometricPrecision; image-rendering:optimizeQuality"
     viewBox="-2552 0 5104 1594">
 <g id="Layer 1">
  <path id="31680424" style="fill:#3E5F5C" d="M-2185 744l413 -120 176 43 157 -46 -179 -40 0 -34 817 -200 712 -202 168 28 488 -141 61 -2 900 147 1024 146 0 32 -1034 423 -1345 545 -84 3 -1224 -303 -1050 -259 0 -20z"/>
  <ELLIPSIS />	
  <path id="31664384" style="fill:#855F2D" d="M-433 1239l9 3 -49 78 -7 -4 47 -77z"/>
  <path id="31664472" style="fill:#855F2D" d="M-411 1242l7 5 -47 76 -9 0 49 -81z"/>
  <path id="31664560" style="fill:#8898A7" d="M82 1103l-38 11 0 83 -4 12 -1 11 -10 9 -5 5 -26 8 -10 0 -5 -5 -5 -8 0 -10 30 -76 -30 -9 -45 16 -7 1 -5 5 -5 9 -4 10 -5 10 -1 12 0 141 33 5 39 -27 0 78 -72 22 0 136 1 12 5 10 9 8 12 4 33 8 116 -56 36 -430 -36 -5z"/>
  <path id="31664648" style="fill:#657786" d="M118 1108l-41 13 0 83 -3 10 -3 10 -7 10 -8 5 -24 8 -12 0 -7 -5 -5 -7 0 -92 -42 13 -6 2 -5 3 -5 11 -4 10 -5 10 -2 12 0 139 69 -20 0 77 -69 21 0 138 2 11 5 9 9 12 11 3 152 -50 0 -436z"/>
</g>
</svg>






