<?xml version="1.0" encoding="iso-8859-1"?>
<!DOCTYPE svg PUBLIC "-//W3C//DTD SVG 20000303 Stylable//EN" "http://www.w3.org/TR/2000/03/WD-SVG-20000303/DTD/svg-20000303-stylable.dtd">
<!-- Creator: CorelDRAW -->
<!-- Complete modem drawing -->
<!-- $Id: a-fullfig.svg,v 1.1 2001-09-08 21:00:22 ctl Exp $ -->
<svg xml:space="preserve" x="-2.55184in" y="0.797028in" width="5.10368in" height="1.59406in" style="shape-rendering:geometricPrecision; text-rendering:geometricPrecision; image-rendering:optimizeQuality"
     viewBox="-2552 0 5104 1594">
 <g id="Layer 1">
   <path id="31680424" style="fill:#3E5F5C" d="M-2185 744l413 -120 176 43 157 -46 -179 -40 0 -34 817 -200 712 -202 168 28 488 -141 61 -2 900 147 1024 146 0 32 -1034 423 -1345 545 -84 3 -1224 -303 -1050 -259 0 -20z"/>
   <ELLIPSIS />	
   <path id="31333956" style="fill:#2A3A48" d="M1369 180l-19 -3 -17 0 -17 -4 -15 -1 -17 -4 -16 -3 -17 -3 -15 0 16 -9 19 -3 15 0 17 3 17 4 17 3 15 2 18 3 15 0 19 5 -19 3 -16 7z"/>
   <path id="31334044" style="fill:#1A1D26" d="M1426 172l0 52 -46 15 0 -52 46 -15z"/>
   <path id="31334132" style="fill:#212D3D" d="M1671 261l0 -51 -168 -25 -45 14 0 50 168 29 45 -17z"/>
   <path id="31334220" style="fill:#202233" d="M1626 278l0 -52 -168 -27 0 50 168 29z"/>
   <path id="31334308" style="fill:#212D3D" d="M1626 226l-12 -4 -10 -3 -12 0 -10 -4 -12 0 -10 -1 -10 -2 -10 0 -12 -5 -10 0 -10 -3 -10 0 -10 -4 -10 0 -10 -1 -10 0 10 -4 12 -3 11 -4 12 -3 10 0 10 2 10 1 11 0 10 0 10 4 10 0 12 5 10 0 10 2 10 1 12 4 10 0 12 0 10 3 11 3 -11 4 -12 1 -12 4 -10 7z"/>
   <path id="31334396" style="fill:#2A3A48" d="M1613 219l-19 -4 -15 0 -19 -3 -15 -2 -17 -3 -16 -3 -17 -4 -15 0 8 -3 10 -5 9 -4 10 0 15 0 17 4 16 3 17 4 15 1 17 4 17 0 17 3 -19 7 -16 5z"/>
   <path id="31334484" style="fill:#1A1D26" d="M1671 210l0 51 -45 17 0 -52 45 -16z"/>
 </g>
</svg>
